# xmcd
#
# Track frame offsets:
#	150
#	19321
#	28583
#	40839
#	57865
#	70951
#	83517
#	96727
#	111925
#	126208
#	137015
#	151783
#	164515
#	177914
#	190095
#
# Disc length: 2712 seconds
#
# Revision: 0
# Processed by: cddbd v1.5.2PL0 Copyright (c) Steve Scherf et al.
# Submitted via: EZCDAudioConverter 4.0.5.1
#
DISCID=c90a960f
DTITLE=Artistes varies - Bar Nashville, Classic and New Country Flavors - CD 1
DTITLE=Various Artist - Classic 
DYEAR=2008
DGENRE=Country
TTITLE0=Merle Haggard - Are The Good Times Really Over
TTITLE1=Tammy Wynette - Your Good Girl's Gonna Go Bad
TTITLE2=Alan Jackson - It's Alright To Be A Redneck
TTITLE3=Johnny Cash - Ghost Riders In The Sky
TTITLE4=Dolly Parton - Here You Come Again
TTITLE5=Waylon Jennings - I'm A Ramblin' Man
TTITLE6=Charlie Rich - Behind Closed Doors
TTITLE7=George Jones - Real Deal
TTITLE8=John Denver - Take Me Home, Country Roads
TTITLE9=Jim Reeves - Welcome To My World
TTITLE10=Ricky Skaggs - Heartbroke
TTITLE11=Charley Pride - Crystal Chandelier
TTITLE12=Tammy Wynette - D-I-V-O-R-C-E
TTITLE13=Bob Wills and His Texas Playboys - Take Me Back To Tulsa
TTITLE14=Gene Autry - Mexicali Rose
EXTD=
EXTT0=
EXTT1=
EXTT2=
EXTT3=
EXTT4=
EXTT5=
EXTT6=
EXTT7=
EXTT8=
EXTT9=
EXTT10=
EXTT11=
EXTT12=
EXTT13=
EXTT14=
PLAYORDER=
